<svg width="860" height="860" viewBox="0 0 860 860" fill="none" xmlns="http://www.w3.org/2000/svg">
<path d="M134.877 109.363V119.54" stroke="#6B81BE" stroke-width="2" stroke-miterlimit="10" stroke-linecap="round" stroke-linejoin="round"/>
<path d="M134.877 139.463V129.287" stroke="#6B81BE" stroke-width="2" stroke-miterlimit="10" stroke-linecap="round" stroke-linejoin="round"/>
<path d="M150.07 124.413H139.75" stroke="#6B81BE" stroke-width="2" stroke-miterlimit="10" stroke-linecap="round" stroke-linejoin="round"/>
<path d="M119.826 124.413H130.146" stroke="#6B81BE" stroke-width="2" stroke-miterlimit="10" stroke-linecap="round" stroke-linejoin="round"/>
<path d="M418.678 145.197V155.373" stroke="#6B81BE" stroke-width="2" stroke-miterlimit="10" stroke-linecap="round" stroke-linejoin="round"/>
<path d="M418.678 175.297V165.12" stroke="#6B81BE" stroke-width="2" stroke-miterlimit="10" stroke-linecap="round" stroke-linejoin="round"/>
<path d="M433.727 160.247H423.551" stroke="#6B81BE" stroke-width="2" stroke-miterlimit="10" stroke-linecap="round" stroke-linejoin="round"/>
<path d="M403.627 160.247H413.804" stroke="#6B81BE" stroke-width="2" stroke-miterlimit="10" stroke-linecap="round" stroke-linejoin="round"/>
<path d="M85.2832 552.12V562.297" stroke="#6B81BE" stroke-width="2" stroke-miterlimit="10" stroke-linecap="round" stroke-linejoin="round"/>
<path d="M85.2832 582.22V572.043" stroke="#6B81BE" stroke-width="2" stroke-miterlimit="10" stroke-linecap="round" stroke-linejoin="round"/>
<path d="M100.333 567.17H90.1562" stroke="#6B81BE" stroke-width="2" stroke-miterlimit="10" stroke-linecap="round" stroke-linejoin="round"/>
<path d="M70.2324 567.17H80.4091" stroke="#6B81BE" stroke-width="2" stroke-miterlimit="10" stroke-linecap="round" stroke-linejoin="round"/>
<path d="M105.78 218.44C109.896 218.44 113.233 215.103 113.233 210.987C113.233 206.87 109.896 203.533 105.78 203.533C101.663 203.533 98.3262 206.87 98.3262 210.987C98.3262 215.103 101.663 218.44 105.78 218.44Z" stroke="#6B81BE" stroke-width="2" stroke-miterlimit="10" stroke-linecap="round" stroke-linejoin="round"/>
<path d="M353.604 559.43C357.72 559.43 361.057 556.093 361.057 551.977C361.057 547.86 357.72 544.523 353.604 544.523C349.487 544.523 346.15 547.86 346.15 551.977C346.15 556.093 349.487 559.43 353.604 559.43Z" stroke="#6B81BE" stroke-width="2" stroke-miterlimit="10" stroke-linecap="round" stroke-linejoin="round"/>
<path d="M775.004 53.8933L789.767 61.06L690.58 774.287H676.82L775.004 53.8933Z" fill="#BBDCEC"/>
<path d="M583.367 78.5459L537.357 774.429H676.821L774.861 54.0359L583.367 78.5459ZM674.814 123.696C673.667 123.983 672.664 124.269 671.517 124.269C661.627 125.273 653.887 117.819 654.461 107.643C655.034 97.466 663.491 88.5793 673.381 87.5759C675.674 87.2893 677.967 87.576 679.974 88.1493C686.424 90.1559 690.867 96.3193 690.437 104.059C690.007 113.233 683.271 121.259 674.814 123.696Z" fill="#88D1F6"/>
<path d="M674.815 123.697C673.668 123.983 672.665 124.27 671.518 124.27C661.628 125.273 653.888 117.82 654.462 107.643C655.035 97.4666 663.491 88.58 673.381 87.5766C675.675 87.29 677.968 87.5766 679.975 88.15C671.518 90.5866 664.782 98.6133 664.352 107.5C663.922 115.527 668.365 121.69 674.815 123.697Z" fill="#BBDCEC"/>
<path d="M624.791 102.913C624.504 100.477 622.354 98.7566 619.918 99.0433L581.648 103.487L581.074 112.373L620.921 107.787C623.358 107.5 625.078 105.207 624.791 102.913Z" fill="#BBDCEC"/>
<path d="M619.201 183.037C618.914 180.6 616.764 178.88 614.327 179.167L576.487 183.18L575.914 192.067L615.331 187.91C617.767 187.623 619.487 185.473 619.201 183.037Z" fill="#BBDCEC"/>
<path d="M613.609 263.16C613.323 260.723 611.173 259.003 608.736 259.147L571.183 262.73L570.609 271.617L609.596 267.89C612.033 267.747 613.753 265.597 613.609 263.16Z" fill="#BBDCEC"/>
<path d="M608.019 343.427C607.876 340.99 605.726 339.27 603.289 339.413L566.023 342.567L565.449 351.453L604.149 348.157C606.443 347.87 608.163 345.863 608.019 343.427Z" fill="#BBDCEC"/>
<path d="M602.43 423.55C602.287 421.113 600.137 419.25 597.7 419.537L560.72 422.26L560.146 431.147L598.417 428.423C600.71 428.137 602.573 425.987 602.43 423.55Z" fill="#BBDCEC"/>
<path d="M596.698 503.673C596.554 501.237 594.405 499.373 591.968 499.517L555.274 501.81L554.701 510.697L592.541 508.403C595.121 508.26 596.984 506.11 596.698 503.673Z" fill="#BBDCEC"/>
<path d="M591.108 583.94C590.964 581.503 588.958 579.64 586.521 579.783L550.114 581.647L549.541 590.533L586.951 588.67C589.388 588.383 591.251 586.377 591.108 583.94Z" fill="#BBDCEC"/>
<path d="M585.516 664.063C585.373 661.627 583.366 659.763 580.93 659.763L544.81 661.197L544.236 670.083L581.36 668.65C583.796 668.507 585.66 666.5 585.516 664.063Z" fill="#BBDCEC"/>
<path d="M579.927 744.187C579.927 741.75 577.777 739.887 575.34 739.887L539.507 740.89L538.934 749.777L575.627 748.773C578.064 748.773 580.07 746.623 579.927 744.187Z" fill="#BBDCEC"/>
<path d="M487.477 478.017C487.477 478.017 470.42 438.887 422.117 431.003C373.814 423.12 349.877 456.23 349.877 456.23C349.877 456.23 374.387 459.67 403.34 482.173C432.294 504.533 462.967 508.977 487.477 478.017Z" fill="#6B81BE"/>
<path d="M545.671 315.477C545.671 315.477 515.714 267.747 455.801 296.127C455.801 296.127 475.151 307.02 500.091 324.793C524.887 342.423 545.671 315.477 545.671 315.477Z" fill="#6B81BE"/>
<path d="M500.377 216.72C500.377 216.72 500.807 228.043 490.63 226.753C482.03 225.607 480.884 196.08 505.394 194.073C530.477 192.067 554.557 232.2 541.514 312.467C528.614 392.877 474.864 438.027 478.447 539.937C482.03 641.847 511.844 680.69 493.497 770.13H528.614C528.614 770.13 534.921 698.463 511.701 616.763C483.894 518.867 503.53 468.557 534.634 388.433C570.467 296.127 565.451 213.137 525.89 193.643C489.054 175.44 469.417 212.42 474.434 231.053C479.594 249.83 505.967 249.973 509.837 235.497C513.851 221.02 500.377 216.72 500.377 216.72Z" fill="#9AB3DA"/>
<path d="M498.371 485.183C498.371 485.183 509.264 428.997 564.448 401.333C619.631 373.67 671.804 410.22 671.804 410.22C671.804 410.22 649.014 473.287 590.391 476.583C541.084 479.45 513.994 478.017 498.371 485.183Z" fill="#6B81BE"/>
<path d="M553.84 313.47C553.84 313.47 569.177 232.773 661.197 247.68C661.197 247.68 651.307 264.307 642.42 283.513C635.11 299.28 595.837 338.983 553.84 313.47Z" fill="#6B81BE"/>
<path d="M477.875 775.72C477.875 775.72 471.711 748.2 451.645 731.43C451.645 731.43 477.158 736.017 488.051 770.13C488.051 770.13 487.191 757.803 486.905 754.937C486.618 752.07 494.501 761.387 497.081 769.413C497.081 769.413 498.085 741.177 483.751 724.693C483.751 724.693 510.698 729.997 519.298 768.123C519.298 768.123 521.448 747.77 535.208 736.877C535.208 736.877 531.051 753.217 530.908 766.69C530.908 766.69 543.235 731.43 573.908 713.083C573.908 713.083 556.994 740.317 552.981 766.117C552.981 766.117 555.418 761.673 565.308 756.943C565.308 756.943 559.861 763.823 556.135 775.863H477.875V775.72Z" fill="#6B81BE"/>
<path d="M280.502 806.107H499.085" stroke="#6B81BE" stroke-width="2" stroke-miterlimit="10" stroke-linecap="round" stroke-linejoin="round"/>
<path d="M242.088 806.107H265.021" stroke="#6B81BE" stroke-width="2" stroke-miterlimit="10" stroke-linecap="round" stroke-linejoin="round"/>
<path d="M521.445 806.107H544.235" stroke="#6B81BE" stroke-width="2" stroke-miterlimit="10" stroke-linecap="round" stroke-linejoin="round"/>
<path d="M460.672 775.72H710.932" stroke="#6B81BE" stroke-width="2" stroke-miterlimit="10" stroke-linecap="round" stroke-linejoin="round"/>
<path d="M386.139 775.72H430.572" stroke="#6B81BE" stroke-width="2" stroke-miterlimit="10" stroke-linecap="round" stroke-linejoin="round"/>
<path d="M185.902 775.72H335.112" stroke="#6B81BE" stroke-width="2" stroke-miterlimit="10" stroke-linecap="round" stroke-linejoin="round"/>
<path d="M385.422 270.757C385.422 270.757 375.388 264.163 370.658 263.16C365.928 262.157 354.462 284.517 354.462 284.517L348.012 278.353C348.012 278.353 361.055 254.13 369.512 254.13C377.968 254.13 389.148 262.443 389.148 262.443L385.422 270.757Z" fill="#404B7C"/>
<path d="M286.953 251.263C299.853 261.297 317.196 316.05 317.196 316.05C317.196 316.05 326.226 310.747 338.41 317.053C350.45 323.36 360.196 337.837 346.15 373.813C332.103 409.79 309.599 415.523 288.673 402.767C267.603 389.867 254.273 337.12 253.126 301.143C251.119 242.52 286.953 251.263 286.953 251.263Z" fill="#88D1F6"/>
<path d="M317.196 316.05C317.196 316.05 309.599 321.64 302.289 342.28" stroke="#BBDCEC" stroke-miterlimit="10" stroke-linecap="round" stroke-linejoin="round"/>
<path d="M326.37 302.147C325.797 302.003 318.057 318.917 318.057 318.917C318.057 318.917 321.927 325.797 335.973 330.813C347.153 334.827 350.45 333.823 350.45 333.823L356.47 316.91C356.327 316.767 349.59 306.017 326.37 302.147Z" fill="#6B81BE"/>
<path d="M328.232 305.587L335.112 282.51C335.112 282.51 342.279 257.14 344.286 254.13C346.292 251.12 361.486 249.543 365.069 250.977C368.652 252.41 365.499 258.717 357.329 261.727C357.329 261.727 369.082 263.59 373.096 267.747C377.109 271.903 373.526 276.203 371.089 278.21C371.089 278.21 373.956 283.513 367.506 287.527C367.506 287.527 369.942 292.83 363.922 296.7C363.922 296.7 365.069 303.293 355.609 302.863L351.596 315.763C351.452 315.62 337.406 314.903 328.232 305.587Z" fill="#BBDCEC"/>
<path d="M355.323 264.02C355.323 264.02 349.016 265.597 352.169 271.76C352.169 271.76 346.436 275.773 350.306 280.933C350.306 280.933 344.143 285.663 349.876 290.537C349.876 290.537 343.856 293.977 349.159 299.137" stroke="#404B7C" stroke-miterlimit="10" stroke-linecap="round" stroke-linejoin="round"/>
<path d="M431.862 298.563L397.462 371.52C397.462 371.52 387.286 383.847 357.329 375.247C327.372 366.79 329.236 328.52 329.236 328.52L389.579 246.533C389.579 246.533 404.629 235.783 422.832 254.417C440.749 272.62 432.149 297.703 431.862 298.563Z" fill="#6B81BE"/>
<path d="M342.566 366.79C328.09 352.6 329.236 328.52 329.236 328.52L382.986 255.42" stroke="#9AB3DA" stroke-miterlimit="10" stroke-linecap="round" stroke-linejoin="round"/>
<path d="M387.285 337.263C387.285 337.263 376.105 341.42 373.955 352.887C371.948 364.353 382.412 367.937 382.412 367.937L428.708 356.47L448.345 367.937L433.725 331.1L425.555 341.133L387.285 337.263Z" fill="#404B7C"/>
<path d="M425.412 342.853C425.412 342.853 423.692 348.157 427.562 353.46" stroke="#6B81BE" stroke-miterlimit="10" stroke-linecap="round" stroke-linejoin="round"/>
<path d="M433.726 331.1C433.726 331.1 430.86 337.693 432.436 347.01C434.156 356.327 448.203 367.793 448.203 367.793C448.203 367.793 452.36 359.767 451.07 348.013C449.78 336.403 433.726 331.1 433.726 331.1Z" fill="#6B81BE"/>
<path d="M437.782 339.903C438.236 339.764 438.397 338.976 438.141 338.144C437.885 337.311 437.309 336.75 436.855 336.889C436.401 337.029 436.241 337.817 436.497 338.649C436.753 339.481 437.328 340.043 437.782 339.903Z" fill="#404B7C"/>
<path d="M446.318 359.632C446.745 359.425 446.783 358.622 446.402 357.838C446.022 357.055 445.367 356.589 444.94 356.796C444.512 357.004 444.475 357.807 444.855 358.59C445.236 359.374 445.891 359.84 446.318 359.632Z" fill="#404B7C"/>
<path d="M437.58 350.322C438.007 350.114 438.045 349.311 437.664 348.528C437.283 347.744 436.628 347.278 436.201 347.486C435.774 347.693 435.736 348.496 436.117 349.28C436.498 350.063 437.153 350.529 437.58 350.322Z" fill="#404B7C"/>
<path d="M447.644 346.718C448.071 346.51 448.109 345.707 447.728 344.924C447.348 344.141 446.693 343.674 446.266 343.882C445.838 344.089 445.801 344.893 446.182 345.676C446.562 346.459 447.217 346.925 447.644 346.718Z" fill="#404B7C"/>
<path d="M442.736 348.846C443.163 348.638 443.201 347.835 442.82 347.052C442.44 346.269 441.785 345.802 441.357 346.01C440.93 346.217 440.893 347.021 441.273 347.804C441.654 348.587 442.309 349.053 442.736 348.846Z" fill="#404B7C"/>
<path d="M431.862 298.563C430.285 298.993 411.508 302.72 396.028 282.94C395.025 281.65 394.022 280.36 393.305 279.07C381.695 261.153 388.862 247.68 389.578 246.533C389.578 246.533 404.628 235.783 422.832 254.417C424.552 256.137 425.985 257.857 427.275 259.72C439.315 277.063 432.148 297.847 431.862 298.563Z" fill="#404B7C"/>
<path d="M431.863 298.563C430.287 298.993 411.51 302.72 396.03 282.94C395.027 281.65 394.023 280.36 393.307 279.07C393.307 279.07 404.343 260.293 427.277 259.577C429.713 259.433 432.437 259.577 435.16 260.007C435.16 260.007 441.467 278.353 431.863 298.563Z" fill="#6B81BE"/>
<path d="M429.713 298.85C424.123 299.423 408.929 299.423 396.173 282.94C395.169 281.65 394.166 280.36 393.449 279.07" stroke="#9AB3DA" stroke-miterlimit="10" stroke-linecap="round" stroke-linejoin="round"/>
<path d="M446.912 333.967C446.912 333.967 504.675 330.097 526.176 388.577" stroke="#9AB3DA" stroke-width="2" stroke-miterlimit="10" stroke-linecap="round" stroke-linejoin="round" stroke-dasharray="9 9"/>
<path d="M452.359 366.79C452.359 366.79 485.326 395.743 491.919 457.95" stroke="#9AB3DA" stroke-width="2" stroke-miterlimit="10" stroke-linecap="round" stroke-linejoin="round" stroke-dasharray="9 9"/>
<path d="M455.799 351.31C455.799 351.31 501.665 365.07 512.272 416.67" stroke="#9AB3DA" stroke-width="2" stroke-miterlimit="10" stroke-linecap="round" stroke-linejoin="round" stroke-dasharray="9 9"/>
<path d="M226.896 693.303C226.896 693.303 241.66 701.33 241.946 700.9C242.09 700.613 249.83 689.003 253.986 682.84C255.563 680.547 256.566 678.97 256.566 678.97L238.363 669.653L232.2 682.267L226.896 693.303Z" fill="#BBDCEC"/>
<path d="M238.219 669.653L232.199 682.267C242.519 684.703 249.973 683.7 253.986 682.84C255.563 680.547 256.566 678.97 256.566 678.97L238.219 669.653Z" fill="#404B7C"/>
<path d="M251.979 689.72C251.979 689.72 274.196 713.227 277.636 713.657C280.932 714.23 296.269 717.383 296.269 717.383L302.289 742.037C302.289 742.037 244.382 743.04 214.426 736.733C214.712 720.25 219.012 701.187 227.039 688.573C234.349 691.01 242.806 691.44 251.979 689.72Z" fill="#404B7C"/>
<path d="M269.754 721.97C270.041 721.97 270.328 721.827 270.614 721.54C270.901 721.11 270.758 720.537 270.328 720.25C250.978 709.07 241.518 693.303 241.374 693.16C241.088 692.73 240.514 692.587 240.084 692.873C239.654 693.16 239.511 693.733 239.798 694.163C239.941 694.307 249.688 710.647 269.468 721.97C269.468 721.827 269.611 721.97 269.754 721.97Z" fill="#9AB3DA"/>
<path d="M282.797 712.51C282.797 712.51 317.34 711.937 308.74 754.22C308.74 754.22 249.974 754.363 211.99 747.197L212.564 734.297C212.564 734.297 244.24 738.883 265.884 738.597C265.74 738.597 270.327 718.96 282.797 712.51Z" fill="#88D1F6"/>
<path d="M232.344 727.703C237.727 727.703 242.091 722.441 242.091 715.95C242.091 709.459 237.727 704.197 232.344 704.197C226.961 704.197 222.598 709.459 222.598 715.95C222.598 722.441 226.961 727.703 232.344 727.703Z" fill="#EEEEEE"/>
<path d="M277.637 657.757C277.637 657.757 269.897 674.097 259.577 684.417C259.577 684.417 248.254 681.693 239.224 676.39C230.194 671.087 227.184 665.64 227.184 665.64L238.364 640.127C253.557 641.13 266.744 646.72 277.637 657.757Z" fill="#9AB3DA"/>
<path d="M314.186 586.377C291.826 624.217 269.466 660.48 269.466 660.48C269.466 660.48 249.83 657.9 240.8 646.863C240.8 646.863 249.543 607.017 261.153 573.62C250.116 564.733 244.67 560.577 233.49 551.69C225.32 545.24 217.723 539.363 211.703 534.633C203.103 528.04 197.656 523.74 197.656 523.74L157.38 476.153C121.546 433.297 174.006 376.68 203.103 405.203C203.103 405.203 274.77 488.193 304.87 528.183C307.02 531.05 309.456 534.347 311.893 537.643C322.356 551.833 323.216 571.04 314.186 586.377Z" fill="#6B81BE"/>
<path d="M206.543 507.113L277.636 571.47L250.833 645.43" stroke="#9AB3DA" stroke-miterlimit="10" stroke-linecap="round" stroke-linejoin="round"/>
<path d="M297.989 537.213C314.759 535.78 324.505 581.647 299.709 587.38C274.912 593.113 275.915 539.077 297.989 537.213Z" fill="#9AB3DA"/>
<path d="M111.943 718.099L128.713 724.979L139.32 708.782L143.62 702.332L122.12 694.019L116.673 706.776L111.943 718.099Z" fill="#BBDCEC"/>
<path d="M116.674 706.776C124.557 708.926 132.297 709.356 139.32 708.64L143.477 702.19L121.977 693.876L116.674 706.776Z" fill="#404B7C"/>
<path d="M137.313 715.09C137.313 715.09 123.267 708.353 110.653 713.513C110.653 713.513 103.63 726.127 101.193 748.057C101.193 748.057 109.937 775.863 129.143 778.013C148.35 780.163 163.687 775.433 163.687 775.433C163.687 775.433 150.93 745.476 148.78 739.743C146.773 734.153 137.313 715.09 137.313 715.09Z" fill="#404B7C"/>
<path d="M130.002 754.076C134.445 754.076 143.332 753.503 146.055 749.49C147.059 747.913 147.202 746.05 146.199 743.757C141.612 733.867 136.452 718.53 136.309 718.387C136.165 717.957 135.592 717.67 135.162 717.813C134.732 717.956 134.445 718.53 134.589 718.96C134.589 719.103 139.892 734.583 144.479 744.473C145.195 746.05 145.195 747.34 144.479 748.343C142.185 751.783 132.439 752.213 128.282 752.07C126.992 749.203 120.542 734.153 118.249 718.817C118.105 718.243 117.675 717.957 117.245 718.1C116.672 718.243 116.385 718.673 116.529 719.103C119.252 736.303 126.849 753.216 126.992 753.36C127.135 753.646 127.422 753.933 127.852 753.933C127.995 754.077 128.855 754.076 130.002 754.076Z" fill="#9AB3DA"/>
<path d="M113.341 734.977C114.507 729.478 113.756 724.662 111.666 724.218C109.575 723.775 106.935 727.873 105.769 733.372C104.603 738.87 105.353 743.687 107.444 744.13C109.535 744.573 112.175 740.475 113.341 734.977Z" fill="#EEEEEE"/>
<path d="M152.793 740.03C152.793 740.03 180.313 756.943 167.413 790.913C167.413 790.913 133.73 795.93 120.686 789.91C107.643 783.89 99.043 758.376 99.043 758.376C99.043 758.376 99.473 750.923 101.05 746.193C101.05 746.193 108.503 760.24 118.393 768.84C118.536 768.983 120.4 735.3 152.793 740.03Z" fill="#88D1F6"/>
<path d="M166.122 683.127C166.122 683.127 149.782 666.787 124.842 667.217L114.379 694.45C114.379 694.45 127.709 705.63 145.626 706.92L166.122 683.127Z" fill="#9AB3DA"/>
<path d="M208.263 624.933C187.48 651.307 167.7 675.53 160.246 684.847C155.946 684.56 139.893 682.553 126.563 671.803C132.583 658.617 146.63 617.48 157.666 592.397C135.163 551.547 88.5796 477.73 88.5796 477.73C69.2295 401.763 139.463 366.647 165.55 403.053C165.55 403.053 192.496 458.093 207.546 510.983C211.703 525.603 216.433 546.96 221.306 570.467C225.176 589.53 220.446 609.453 208.263 624.933Z" fill="#6B81BE"/>
<path d="M109.507 431.577L106.067 457.233C104.777 466.407 107.07 475.867 112.373 483.463C126.993 504.963 157.953 552.12 173.72 589.387L139.033 672.09" stroke="#9AB3DA" stroke-miterlimit="10" stroke-linecap="round" stroke-linejoin="round"/>
<path d="M165.693 402.91C165.693 402.91 192.64 457.95 207.69 510.84C209.553 517.29 211.56 525.317 213.567 534.06" stroke="#9AB3DA" stroke-miterlimit="10" stroke-linecap="round" stroke-linejoin="round"/>
<path d="M203.818 457.807L212.275 485.47C213.422 489.053 212.705 492.923 210.412 495.933L205.252 502.813" stroke="#9AB3DA" stroke-miterlimit="10" stroke-linecap="round" stroke-linejoin="round"/>
<path d="M205.111 567.17C222.167 568.89 223.457 616.333 197.657 617.48C171.857 618.627 182.607 565.02 205.111 567.17Z" fill="#9AB3DA"/>
<path d="M242.234 222.883C242.234 222.883 264.164 232.773 286.954 251.263C258.861 317.483 247.537 386.857 255.851 456.803C255.851 456.803 229.334 479.45 165.551 471.567C104.921 464.113 80.6973 427.277 80.6973 427.277C80.6973 427.277 96.4639 267.317 168.131 226.61C168.131 226.753 210.414 211.417 242.234 222.883Z" fill="#88D1F6"/>
<path d="M284.661 256.853C273.624 283.8 265.311 311.463 260.008 339.27" stroke="#BBDCEC" stroke-miterlimit="10" stroke-linecap="round" stroke-linejoin="round"/>
<path d="M225.895 236.643L214.715 274.627C214.142 276.777 215.289 279.07 217.439 279.787L221.595 281.22C223.889 282.08 226.469 280.647 227.042 278.353L237.075 240.083L225.895 236.643Z" stroke="#BBDCEC" stroke-miterlimit="10" stroke-linecap="round" stroke-linejoin="round"/>
<path d="M92.0215 420.683C92.0215 420.683 160.821 483.893 247.681 446.77" stroke="#BBDCEC" stroke-miterlimit="10" stroke-linecap="round" stroke-linejoin="round"/>
<path d="M242.664 211.99C247.968 213.567 253.701 218.153 256.568 220.733C257.714 221.737 258.144 223.457 257.571 224.89L250.978 240.8C250.978 240.8 241.231 246.82 230.194 242.233C219.158 237.647 216.291 228.473 216.291 228.473L220.161 212.133C220.448 210.7 221.738 209.553 223.314 209.41C226.611 208.98 232.918 209.123 242.664 211.99Z" fill="#6B81BE"/>
<path d="M240.945 195.65L237.791 202.387L230.338 218.44C230.625 218.727 230.911 218.87 231.341 219.157C236.931 223.027 242.808 224.46 247.251 224.747L249.258 215.287L251.981 202.1L240.945 195.65Z" fill="#BBDCEC"/>
<path d="M240.944 195.65L237.791 202.387C239.368 206.257 242.664 210.843 249.114 215.287L251.838 202.1L240.944 195.65Z" fill="#404B7C"/>
<path d="M235.067 222.31C239.654 224.46 243.954 225.32 247.251 225.607C247.824 225.607 248.397 225.607 248.827 225.75C252.267 225.893 254.704 225.463 254.704 225.463C255.277 225.32 255.564 224.89 255.421 224.317C255.277 223.887 254.847 223.457 254.274 223.6C254.274 223.6 252.124 224.03 248.827 223.887C248.397 223.887 247.824 223.887 247.251 223.743C243.237 223.457 237.36 222.31 231.77 218.297C231.484 218.01 231.197 217.867 230.911 217.58C228.617 215.86 226.467 213.71 224.604 211.273C224.317 210.843 223.744 210.843 223.314 211.13C222.884 211.417 222.884 211.99 223.17 212.42C225.177 215 227.327 217.293 229.764 219.157C230.051 219.443 230.337 219.587 230.767 219.873C232.2 220.877 233.634 221.593 235.067 222.31Z" fill="#9AB3DA"/>
<path d="M272.191 154.8C288.674 164.69 274.054 206.687 268.607 211.703C263.161 216.72 240.227 201.813 237.217 197.943C234.207 194.073 236.214 177.877 239.224 168.13C242.234 158.383 252.984 143.333 272.191 154.8Z" fill="#BBDCEC"/>
<path d="M262.732 195.507H262.875C263.018 195.507 267.032 196.51 269.182 193.5C269.468 193.213 269.468 192.783 269.182 192.353C267.175 189.487 266.602 183.61 266.602 183.61C266.602 183.037 266.172 182.75 265.598 182.75C265.025 182.75 264.738 183.18 264.738 183.753C264.738 184.04 265.312 189.487 267.318 192.927C265.742 194.36 263.305 193.787 263.305 193.787C262.875 193.643 262.302 193.93 262.158 194.503C262.158 194.933 262.302 195.363 262.732 195.507Z" fill="#404B7C"/>
<path d="M255.134 200.093C260.007 202.387 263.877 201.957 264.164 201.957C264.737 201.957 265.024 201.383 265.024 200.953C265.024 200.38 264.45 200.093 264.02 200.093C264.02 200.093 258.717 200.81 253.27 196.797C252.84 196.51 252.267 196.653 251.98 196.94C251.694 197.37 251.837 197.943 252.124 198.23C253.127 198.947 254.13 199.52 255.134 200.093Z" fill="#404B7C"/>
<path d="M261.154 176.157C261.154 176.157 261.584 172.43 260.868 171.57C260.151 170.71 259.721 172.43 259.721 172.43C259.721 172.43 252.698 169.563 250.548 176.73C250.261 176.73 254.274 173.433 261.154 176.157Z" fill="#404B7C"/>
<path d="M269.611 177.733C269.611 177.733 270.185 174.007 270.901 173.29C271.618 172.573 271.618 174.293 271.618 174.293C271.618 174.293 277.351 172.43 277.495 179.74C277.495 179.74 275.345 175.87 269.611 177.733Z" fill="#404B7C"/>
<path d="M260.122 183.749C260.461 181.799 259.472 179.998 257.912 179.727C256.352 179.456 254.813 180.816 254.474 182.766C254.134 184.716 255.124 186.516 256.684 186.788C258.243 187.059 259.783 185.698 260.122 183.749Z" fill="#404B7C"/>
<path d="M258.718 183.61C259.272 183.61 259.721 183.161 259.721 182.607C259.721 182.052 259.272 181.603 258.718 181.603C258.164 181.603 257.715 182.052 257.715 182.607C257.715 183.161 258.164 183.61 258.718 183.61Z" fill="white"/>
<path d="M275.073 185.668C275.412 183.719 274.423 181.918 272.863 181.647C271.303 181.375 269.764 182.736 269.425 184.686C269.086 186.635 270.075 188.436 271.635 188.707C273.195 188.979 274.734 187.618 275.073 185.668Z" fill="#404B7C"/>
<path d="M273.624 185.617C274.179 185.617 274.628 185.168 274.628 184.613C274.628 184.059 274.179 183.61 273.624 183.61C273.07 183.61 272.621 184.059 272.621 184.613C272.621 185.168 273.07 185.617 273.624 185.617Z" fill="white"/>
<path d="M239.654 181.173L242.234 175.44C242.234 175.44 250.404 172.86 251.694 165.693C251.694 165.693 270.041 186.19 291.541 181.173C291.541 181.173 290.394 175.583 287.671 172.43C287.671 172.43 307.164 166.697 312.754 147.92C314.904 141.04 294.407 141.327 285.521 146.917C285.521 146.917 298.134 131.867 293.977 118.68C292.687 114.81 275.487 123.553 266.314 135.02C266.314 135.02 269.181 123.84 266.601 118.107C265.741 116.1 255.564 123.41 248.254 138.173C248.254 138.173 233.634 139.607 224.031 149.21C214.427 158.813 213.711 177.59 236.214 189.773L239.654 181.173Z" fill="#404B7C"/>
<path d="M239.655 181.173C239.655 181.173 239.225 165.12 229.191 165.837C219.301 166.41 221.881 186.62 237.218 191.493L239.655 181.173Z" fill="#BBDCEC"/>
<path d="M234.065 186.62C234.209 186.62 234.209 186.763 234.065 186.62C234.639 186.763 235.212 186.62 235.355 186.047C235.355 185.903 238.939 174.437 230.052 169.993C229.622 169.707 229.049 169.993 228.762 170.423C228.475 170.853 228.762 171.427 229.192 171.713C236.645 175.44 233.635 185.473 233.635 185.473C233.492 186.047 233.635 186.477 234.065 186.62Z" fill="#404B7C"/>
<path d="M228.905 182.177C229.335 182.32 229.765 182.32 230.052 181.89C230.052 181.89 232.345 178.593 234.925 177.16C235.355 176.873 235.499 176.3 235.212 175.87C234.925 175.44 234.352 175.297 233.922 175.583C231.055 177.16 228.619 180.743 228.475 180.887C228.189 181.173 228.332 181.747 228.905 182.177C228.762 182.033 228.905 182.177 228.905 182.177Z" fill="#404B7C"/>
<path d="M169.85 496.077C169.85 496.077 175.153 514.71 176.013 521.733C176.873 528.9 176.873 544.237 180.17 545.097C183.466 545.957 186.333 543.52 186.333 543.52C186.333 543.52 189.63 546.1 191.923 545.383C194.36 544.667 195.793 543.377 195.793 543.377C195.793 543.377 200.093 544.953 202.243 544.523C204.393 544.093 206.543 541.657 206.543 541.657C206.543 541.657 210.7 544.093 214.14 540.797C217.723 537.5 216.146 516.143 212.706 511.413C209.41 506.683 194.503 492.207 194.503 492.207L169.85 496.077Z" fill="#BBDCEC"/>
<path d="M184.898 523.453C184.898 523.453 185.758 534.203 186.045 540.797" stroke="#404B7C" stroke-miterlimit="10" stroke-linecap="round" stroke-linejoin="round"/>
<path d="M194.359 522.593C194.359 522.593 195.793 535.207 195.649 540.797" stroke="#404B7C" stroke-miterlimit="10" stroke-linecap="round" stroke-linejoin="round"/>
<path d="M203.818 520.873C203.818 520.873 205.968 532.627 206.112 538.36" stroke="#404B7C" stroke-miterlimit="10" stroke-linecap="round" stroke-linejoin="round"/>
<path d="M164.115 479.307L167.699 498.513C167.699 498.513 173.862 505.967 186.045 502.813C198.372 499.803 199.949 491.49 199.949 491.49V473.43L164.115 479.307Z" fill="#6B81BE"/>
<path d="M164.115 479.307L167.699 498.513C167.699 498.513 173.862 505.967 186.045 502.813C198.372 499.803 199.949 491.49 199.949 491.49V473.43L164.115 479.307Z" stroke="#9AB3DA" stroke-miterlimit="10" stroke-linecap="round" stroke-linejoin="round"/>
<path d="M165.691 228.33C125.271 232.343 126.131 287.957 130.431 331.387C134.731 374.817 155.801 476.87 155.801 476.87C155.801 476.87 165.261 492.35 182.461 489.34C199.661 486.187 203.674 471.853 203.674 471.853C203.674 471.853 200.234 331.673 199.948 294.55C199.661 257.427 190.344 225.75 165.691 228.33Z" fill="#88D1F6"/>
<path d="M128.426 294.407C128.282 306.733 129.286 319.49 130.432 331.387C134.732 374.817 155.802 476.87 155.802 476.87C155.802 476.87 165.262 492.35 182.462 489.34C199.662 486.187 203.676 471.853 203.676 471.853C203.676 471.853 200.236 331.673 199.949 294.55C199.662 261.727 192.352 233.347 173.576 228.903" stroke="#BBDCEC" stroke-miterlimit="10" stroke-linecap="round" stroke-linejoin="round"/>
</svg>
